<svg id="Layer_1" enable-background="new 0 0 1540 1540" height="512" viewBox="0 0 1540 1540" width="512" xmlns="http://www.w3.org/2000/svg"><g><g><g><path d="m1216 1531h-1190c-11.6 0-21-9.4-21-21v-1480c0-11.6 9.4-21 21-21h1190c11.6 0 21 9.4 21 21v813.3c0 11.6-9.4 21-21 21s-21-9.4-21-21v-792.3h-1148v1438h1148v-193.5c0-11.6 9.4-21 21-21s21 9.4 21 21v214.5c0 11.6-9.4 21-21 21z"/></g></g><g><g><g><g><path d="m621 753.2c-74.1 0-143.9-28.9-196.3-81.3s-81.3-122.1-81.3-196.3 28.9-143.9 81.3-196.3c52.5-52.4 122.2-81.3 196.3-81.3s143.9 28.9 196.3 81.3 81.3 122.1 81.3 196.3c0 74.1-28.9 143.9-81.3 196.3s-122.1 81.3-196.3 81.3zm0-513.2c-129.9 0-235.6 105.7-235.6 235.6s105.7 235.6 235.6 235.6 235.6-105.7 235.6-235.6-105.7-235.6-235.6-235.6z"/></g></g><g><g><path d="m621 547c-64.4 0-116.8-52.4-116.8-116.8s52.4-116.8 116.8-116.8 116.8 52.4 116.8 116.8-52.4 116.8-116.8 116.8zm0-191.6c-41.2 0-74.8 33.5-74.8 74.8s33.6 74.8 74.8 74.8 74.8-33.6 74.8-74.8-33.5-74.8-74.8-74.8z"/></g><g><path d="m776.8 700.5c-11.6 0-21-9.4-21-21v-21.7c0-60.8-49.5-110.3-110.3-110.3h-49c-60.8 0-110.3 49.5-110.3 110.3v21.7c0 11.6-9.4 21-21 21s-21-9.4-21-21v-21.7c0-84 68.3-152.3 152.3-152.3h49c84 0 152.3 68.3 152.3 152.3v21.7c0 11.6-9.4 21-21 21z"/></g></g></g><g><g><path d="m833.7 972h-469.6c-11.6 0-21-9.4-21-21s9.4-21 21-21h469.6c11.6 0 21 9.4 21 21s-9.4 21-21 21z"/></g><g><path d="m810.6 1139.1h-446.5c-11.6 0-21-9.4-21-21s9.4-21 21-21h446.5c11.6 0 21 9.4 21 21s-9.4 21-21 21z"/></g><g><path d="m915.7 1306.2h-551.6c-11.6 0-21-9.4-21-21s9.4-21 21-21h551.6c11.6 0 21 9.4 21 21s-9.4 21-21 21z"/></g><g><circle cx="252.7" cy="951" r="35.8"/></g><g><circle cx="252.7" cy="1118.1" r="35.8"/></g><g><circle cx="252.7" cy="1285.2" r="35.8"/></g></g></g><g><g><path d="m1073.4 1357.7c-77 0-149.4-30-203.8-84.4s-84.4-126.8-84.4-203.8 30-149.4 84.4-203.8 126.8-84.4 203.8-84.4 149.4 30 203.8 84.4c54.4 54.4 84.4 126.8 84.4 203.8s-30 149.4-84.4 203.8-126.8 84.4-203.8 84.4zm0-534.6c-65.8 0-127.6 25.6-174.1 72.1-96 96-96 252.2 0 348.3 46.5 46.5 108.4 72.1 174.1 72.1 65.8 0 127.6-25.6 174.1-72.1s72.1-108.4 72.1-174.1c0-65.8-25.6-127.6-72.1-174.1-46.5-46.5-108.3-72.2-174.1-72.2z"/></g><g><path d="m1073.4 1282.3c-54.5 0-109.1-20.8-150.6-62.3-83-83-83-218.2 0-301.2s218.2-83 301.2 0 83 218.2 0 301.2c-41.5 41.5-96 62.3-150.6 62.3zm0-383.8c-43.8 0-87.6 16.7-120.9 50-66.7 66.7-66.7 175.1 0 241.8s175.1 66.7 241.8 0 66.7-175.1 0-241.8c-33.3-33.3-77.1-50-120.9-50z"/></g><g><path d="m1467.6 1530.9c-17.3 0-34.5-6.6-47.7-19.7l-208-208c-8.2-8.2-8.2-21.5 0-29.7s21.5-8.2 29.7 0l208 208c9.9 9.9 26 9.9 35.9 0 4.8-4.8 7.4-11.2 7.4-18s-2.6-13.2-7.4-18l-208-208c-8.2-8.2-8.2-21.5 0-29.7s21.5-8.2 29.7 0l208 208c26.3 26.3 26.3 69 0 95.3-13.1 13.3-30.3 19.8-47.6 19.8z"/></g></g></g></svg>