<svg height="512pt" viewBox="-40 0 511 512" width="512pt" xmlns="http://www.w3.org/2000/svg"><path d="m112.210938 119.210938h96.191406c4.144531 0 7.5-3.359376 7.5-7.5 0-4.144532-3.355469-7.5-7.5-7.5h-96.191406c-4.144532 0-7.5 3.355468-7.5 7.5 0 4.140624 3.355468 7.5 7.5 7.5zm0 0"/><path d="m64.113281 167.308594h192.386719c4.140625 0 7.5-3.359375 7.5-7.5 0-4.144532-3.359375-7.5-7.5-7.5h-192.386719c-4.144531 0-7.5 3.355468-7.5 7.5 0 4.140625 3.355469 7.5 7.5 7.5zm0 0"/><path d="m64.113281 231.4375h192.386719c4.140625 0 7.5-3.359375 7.5-7.5 0-4.144531-3.359375-7.5-7.5-7.5h-192.386719c-4.144531 0-7.5 3.355469-7.5 7.5 0 4.140625 3.355469 7.5 7.5 7.5zm0 0"/><path d="m64.113281 199.371094h192.386719c4.140625 0 7.5-3.359375 7.5-7.5 0-4.144532-3.359375-7.5-7.5-7.5h-192.386719c-4.144531 0-7.5 3.355468-7.5 7.5 0 4.140625 3.355469 7.5 7.5 7.5zm0 0"/><path d="m152.289062 272.546875h-88.175781c-4.144531 0-7.5 3.359375-7.5 7.5 0 4.144531 3.355469 7.5 7.5 7.5h88.175781c4.144532 0 7.5-3.355469 7.5-7.5 0-4.140625-3.355468-7.5-7.5-7.5zm0 0"/><path d="m152.289062 304.613281h-88.175781c-4.144531 0-7.5 3.359375-7.5 7.5s3.355469 7.5 7.5 7.5h88.175781c4.144532 0 7.5-3.359375 7.5-7.5s-3.355468-7.5-7.5-7.5zm0 0"/><path d="m352.175781 307.308594v-299.808594c0-4.140625-3.355469-7.5-7.5-7.5h-304.613281c-4.140625 0-7.5 3.359375-7.5 7.5v24.5625h-24.5625c-4.140625 0-7.5 3.359375-7.5 7.5v400.808594c0 4.140625 3.359375 7.5 7.5 7.5h224.800781c15.582031 37.605468 52.671875 64.128906 95.84375 64.128906 57.175781 0 103.695313-46.515625 103.695313-103.691406 0-49.085938-34.285156-90.316406-80.164063-101zm-336.675781 125.5625v-385.808594h217.46875v64.648438c0 4.140624 3.355469 7.5 7.5 7.5h64.644531v144.808593c0 4.140625 3.359375 7.5 7.5 7.5s7.5-3.359375 7.5-7.5v-152.308593c0-1.992188-.789062-3.898438-2.199219-5.304688l-72.144531-72.144531c-1.40625-1.40625-3.3125-2.199219-5.300781-2.199219h-192.90625v-17.0625h289.613281v289.964844c-2.8125-.230469-5.65625-.351563-8.53125-.351563s-5.71875.121094-8.53125.351563v-8.882813c0-4.144531-3.359375-7.5-7.5-7.5-4.144531 0-7.5 3.355469-7.5 7.5v11.226563c-45.878906 10.6875-80.164062 51.914062-80.164062 101 0 8.460937 1.027343 16.683594 2.949219 24.5625zm232.46875-375.199219 46.535156 46.539063h-46.535156zm80.675781 439.328125c-48.90625 0-88.691406-39.789062-88.691406-88.691406 0-48.90625 39.785156-88.695313 88.691406-88.695313s88.695313 39.789063 88.695313 88.695313c0 48.902344-39.789063 88.691406-88.695313 88.691406zm0 0"/><path d="m328.644531 367.710938c11.472657 0 22.476563 4.933593 30.195313 13.539062 2.765625 3.082031 7.507812 3.339844 10.589844.574219 3.085937-2.765625 3.34375-7.503907.578124-10.589844-10.558593-11.769531-25.636718-18.523437-41.363281-18.523437-30.65625 0-55.597656 24.941406-55.597656 55.597656s24.941406 55.597656 55.597656 55.597656c15.726563 0 30.804688-6.753906 41.363281-18.527344 2.765626-3.082031 2.507813-7.824218-.578124-10.589844-3.082032-2.765624-7.824219-2.507812-10.589844.574219-7.71875 8.605469-18.722656 13.542969-30.195313 13.542969-22.382812 0-40.597656-18.214844-40.597656-40.597656 0-22.386719 18.210937-40.597656 40.597656-40.597656zm0 0"/></svg>