<svg width="30" height="30" viewBox="0 0 30 30" fill="none" xmlns="http://www.w3.org/2000/svg">
<path d="M28.125 18.7496C28.1269 17.8109 27.8938 16.8866 27.447 16.061C27.0002 15.2354 26.3538 14.5347 25.5668 14.0229C24.7799 13.511 23.8773 13.2043 22.9415 13.1306C22.0056 13.057 21.0662 13.2187 20.2088 13.6011C19.3514 13.9834 18.6034 14.5743 18.0329 15.3198C17.4624 16.0654 17.0875 16.9418 16.9425 17.8693C16.7975 18.7968 16.8869 19.7459 17.2026 20.6299C17.5183 21.514 18.0503 22.3051 18.75 22.9309V29.9996L22.5 28.224L26.25 29.9996V22.9309C26.8394 22.4053 27.3111 21.7612 27.6342 21.0406C27.9573 20.32 28.1246 19.5393 28.125 18.7496ZM24.375 27.0371L22.5 26.1493L20.625 27.0371V24.0465C21.8367 24.4841 23.1633 24.4841 24.375 24.0465V27.0371ZM22.5 22.4996C21.7583 22.4996 21.0333 22.2797 20.4166 21.8677C19.7999 21.4556 19.3193 20.8699 19.0354 20.1847C18.7516 19.4995 18.6774 18.7455 18.822 18.0181C18.9667 17.2906 19.3239 16.6224 19.8483 16.098C20.3728 15.5736 21.041 15.2164 21.7684 15.0717C22.4958 14.927 23.2498 15.0013 23.9351 15.2851C24.6203 15.5689 25.2059 16.0496 25.618 16.6663C26.0301 17.2829 26.25 18.008 26.25 18.7496C26.2487 19.7438 25.8533 20.6969 25.1503 21.3999C24.4473 22.1029 23.4942 22.4984 22.5 22.4996V22.4996Z" fill="white"/>
<path d="M23.4375 4.6875H20.625V3.75C20.6235 3.25318 20.4255 2.77712 20.0742 2.42581C19.7229 2.0745 19.2468 1.87648 18.75 1.875H11.25C10.7532 1.87648 10.2771 2.0745 9.92581 2.42581C9.5745 2.77712 9.37648 3.25318 9.375 3.75V4.6875H6.5625C6.06568 4.68898 5.58962 4.887 5.23831 5.23831C4.887 5.58962 4.68898 6.06568 4.6875 6.5625V26.25C4.68898 26.7468 4.887 27.2229 5.23831 27.5742C5.58962 27.9255 6.06568 28.1235 6.5625 28.125H15V26.25H6.5625V6.5625H9.375V9.375H20.625V6.5625H23.4375V11.25H25.3125V6.5625C25.311 6.06568 25.113 5.58962 24.7617 5.23831C24.4104 4.887 23.9343 4.68898 23.4375 4.6875ZM18.75 7.5H11.25V3.75H18.75V7.5Z" fill="white"/>
</svg>
