<svg width="30" height="30" viewBox="0 0 30 30" fill="none" xmlns="http://www.w3.org/2000/svg">
<path d="M26.25 25H25V6.25C25 5.91848 24.8683 5.60054 24.6339 5.36612C24.3995 5.1317 24.0815 5 23.75 5C23.4185 5 23.1005 5.1317 22.8661 5.36612C22.6317 5.60054 22.5 5.91848 22.5 6.25V25H20V11.25C20 10.9185 19.8683 10.6005 19.6339 10.3661C19.3995 10.1317 19.0815 10 18.75 10C18.4185 10 18.1005 10.1317 17.8661 10.3661C17.6317 10.6005 17.5 10.9185 17.5 11.25V25H15V16.25C15 15.9185 14.8683 15.6005 14.6339 15.3661C14.3995 15.1317 14.0815 15 13.75 15C13.4185 15 13.1005 15.1317 12.8661 15.3661C12.6317 15.6005 12.5 15.9185 12.5 16.25V25H10V21.25C10 20.9185 9.8683 20.6005 9.63388 20.3661C9.39946 20.1317 9.08152 20 8.75 20C8.41848 20 8.10054 20.1317 7.86612 20.3661C7.6317 20.6005 7.5 20.9185 7.5 21.25V25H5V3.75C5 3.41848 4.8683 3.10054 4.63388 2.86612C4.39946 2.6317 4.08152 2.5 3.75 2.5C3.41848 2.5 3.10054 2.6317 2.86612 2.86612C2.6317 3.10054 2.5 3.41848 2.5 3.75V26.25C2.5 26.5815 2.6317 26.8995 2.86612 27.1339C3.10054 27.3683 3.41848 27.5 3.75 27.5H26.25C26.5815 27.5 26.8995 27.3683 27.1339 27.1339C27.3683 26.8995 27.5 26.5815 27.5 26.25C27.5 25.9185 27.3683 25.6005 27.1339 25.3661C26.8995 25.1317 26.5815 25 26.25 25Z" fill="white"/>
</svg>
