<svg width="35" height="36" viewBox="0 0 35 36" xmlns="http://www.w3.org/2000/svg">
<path fill-rule="evenodd" clip-rule="evenodd" d="M5.25 10C5.25 9.66848 5.43437 9.35054 5.76256 9.11612C6.09075 8.8817 6.53587 8.75 7 8.75H28C28.4641 8.75 28.9093 8.8817 29.2374 9.11612C29.5656 9.35054 29.75 9.66848 29.75 10C29.75 10.3315 29.5656 10.6495 29.2374 10.8839C28.9093 11.1183 28.4641 11.25 28 11.25H7C6.53587 11.25 6.09075 11.1183 5.76256 10.8839C5.43437 10.6495 5.25 10.3315 5.25 10Z" />
<path fill-rule="evenodd" clip-rule="evenodd" d="M5.25 17.5C5.25 17.1685 5.43437 16.8505 5.76256 16.6161C6.09075 16.3817 6.53587 16.25 7 16.25H28C28.4641 16.25 28.9093 16.3817 29.2374 16.6161C29.5656 16.8505 29.75 17.1685 29.75 17.5C29.75 17.8315 29.5656 18.1495 29.2374 18.3839C28.9093 18.6183 28.4641 18.75 28 18.75H7C6.53587 18.75 6.09075 18.6183 5.76256 18.3839C5.43437 18.1495 5.25 17.8315 5.25 17.5Z" />
<path fill-rule="evenodd" clip-rule="evenodd" d="M15.75 25C15.75 24.6685 15.9344 24.3505 16.2626 24.1161C16.5908 23.8817 17.0359 23.75 17.5 23.75H28C28.4641 23.75 28.9092 23.8817 29.2374 24.1161C29.5656 24.3505 29.75 24.6685 29.75 25C29.75 25.3315 29.5656 25.6495 29.2374 25.8839C28.9092 26.1183 28.4641 26.25 28 26.25H17.5C17.0359 26.25 16.5908 26.1183 16.2626 25.8839C15.9344 25.6495 15.75 25.3315 15.75 25Z" />
</svg>
