<svg width="30" height="30" viewBox="0 0 30 30" fill="none" xmlns="http://www.w3.org/2000/svg">
<path d="M22.5939 1.94238L27.8102 7.37988V28.0574H8.32422V28.1249H27.8767V7.44832L22.5939 1.94238Z" fill="#909090"/>
<path d="M22.5289 1.875H8.25732V28.0575H27.8098V7.38094L22.5279 1.875" fill="#F4F4F4"/>
<path d="M21.0673 9.57272H2.24512V3.16772H21.0673V9.57272Z" fill="#DD2025"/>
<path d="M20.4196 18.9892C20.4196 18.9892 23.4084 18.4473 23.4084 19.4682C23.4084 20.4892 21.5568 20.0739 20.4196 18.9892ZM18.21 19.067C17.7351 19.1719 17.2723 19.3255 16.829 19.5254L17.204 18.6817C17.579 17.8379 17.9681 16.6876 17.9681 16.6876C18.4156 17.4407 18.9362 18.1479 19.5225 18.7989C19.0803 18.8648 18.6422 18.9549 18.21 19.0689V19.067ZM17.0268 12.9732C17.0268 12.0835 17.3146 11.8407 17.5387 11.8407C17.7628 11.8407 18.015 11.9485 18.0234 12.721C17.9504 13.4978 17.7877 14.2635 17.5387 15.0029C17.1976 14.3821 17.021 13.6844 17.0259 12.976L17.0268 12.9732ZM12.6684 22.832C11.7515 22.2835 14.5912 20.5951 15.1059 20.5407C15.1031 20.5417 13.6284 23.4057 12.6684 22.832ZM24.2812 19.5892C24.2718 19.4954 24.1875 18.4576 22.3406 18.5017C21.5708 18.4893 20.8013 18.5435 20.0409 18.6639C19.3043 17.9217 18.6699 17.0847 18.1546 16.1748C18.4793 15.2367 18.6757 14.2592 18.7387 13.2685C18.7115 12.1435 18.4425 11.4985 17.58 11.5079C16.7175 11.5173 16.5918 12.272 16.7053 13.3951C16.8164 14.1498 17.026 14.8867 17.3287 15.587C17.3287 15.587 16.9303 16.8273 16.4034 18.061C15.8765 19.2948 15.5165 19.9417 15.5165 19.9417C14.6003 20.2399 13.7378 20.683 12.9618 21.2542C12.1893 21.9732 11.8753 22.5254 12.2821 23.0776C12.6328 23.5539 13.86 23.6617 14.9568 22.2245C15.5396 21.4822 16.0721 20.7017 16.5506 19.8882C16.5506 19.8882 18.2231 19.4298 18.7434 19.3042C19.2637 19.1785 19.8928 19.0792 19.8928 19.0792C19.8928 19.0792 21.42 20.6157 22.8928 20.5614C24.3656 20.507 24.2943 19.681 24.285 19.591" fill="#DD2025"/>
<path d="M22.457 1.94727V7.4532H27.738L22.457 1.94727Z" fill="#909090"/>
<path d="M22.5293 1.875V7.38094H27.8102L22.5293 1.875Z" fill="#F4F4F4"/>
<path d="M8.41428 4.17847H7.18896V8.67847H8.15646V7.16159L8.37022 7.17378C8.577 7.17022 8.78184 7.13318 8.97678 7.06409C9.14768 7.00528 9.3049 6.91248 9.43896 6.79128C9.57435 6.67549 9.68091 6.52977 9.75021 6.36565C9.84424 6.09237 9.87783 5.80193 9.84865 5.5144C9.8428 5.30901 9.80679 5.10558 9.74178 4.91065C9.6826 4.76994 9.59477 4.64309 9.48388 4.53818C9.373 4.43327 9.24149 4.35259 9.09772 4.30128C8.97284 4.25584 8.84377 4.22287 8.7124 4.20284C8.61343 4.18757 8.51348 4.17942 8.41334 4.17847H8.41428ZM8.23615 6.32909H8.15271V4.94159H8.33459C8.41445 4.93583 8.49458 4.94809 8.56906 4.97746C8.64354 5.00683 8.71047 5.05257 8.7649 5.11128C8.8777 5.26223 8.93796 5.44597 8.93646 5.6344C8.93646 5.86503 8.93647 6.07409 8.72834 6.22128C8.5784 6.30375 8.40774 6.34088 8.23709 6.32815" fill="white"/>
<path d="M11.6773 4.16631C11.5733 4.16631 11.472 4.17381 11.4008 4.17663L11.1805 4.18225H10.4492V8.68225H11.3098C11.6387 8.69127 11.9662 8.63552 12.2736 8.51819C12.521 8.42005 12.7401 8.26186 12.9111 8.05788C13.0774 7.85205 13.1967 7.61241 13.2608 7.35569C13.3344 7.06494 13.3704 6.76592 13.3677 6.466C13.3858 6.11177 13.3584 5.75668 13.2861 5.40944C13.2175 5.15384 13.0889 4.91828 12.9111 4.72225C12.7716 4.56397 12.6008 4.43629 12.4095 4.34725C12.2453 4.27124 12.0725 4.21521 11.8948 4.18038C11.8242 4.16871 11.7527 4.16338 11.6811 4.16444L11.6773 4.16631ZM11.5105 7.85538H11.4167V4.98288H11.4289C11.6222 4.96064 11.8177 4.99551 11.9914 5.08319C12.1186 5.18475 12.2222 5.31269 12.2952 5.45819C12.3739 5.61132 12.4192 5.77938 12.4283 5.95131C12.4367 6.15756 12.4283 6.32631 12.4283 6.466C12.4321 6.62691 12.4217 6.78784 12.3973 6.94694C12.3684 7.11028 12.315 7.26831 12.2389 7.41569C12.1527 7.55271 12.0363 7.66816 11.8986 7.75319C11.7829 7.828 11.646 7.8629 11.5086 7.85256" fill="white"/>
<path d="M16.2684 4.18213H13.9902V8.68213H14.954V6.89713H16.1727V6.06088H14.954V5.01838H16.2665V4.18213" fill="white"/>
</svg>
