<svg width="12" height="13" viewBox="0 0 12 13" xmlns="http://www.w3.org/2000/svg">
<path d="M4.99999 10.0001C4.88317 10.0003 4.76995 9.95963 4.67999 9.88509C4.62937 9.84312 4.58751 9.79157 4.55684 9.73339C4.52616 9.67522 4.50726 9.61157 4.50123 9.54608C4.49519 9.48059 4.50213 9.41455 4.52165 9.35175C4.54117 9.28895 4.57289 9.23062 4.61499 9.18009L6.85499 6.50009L4.695 3.81509C4.65346 3.76395 4.62245 3.7051 4.60373 3.64193C4.58501 3.57876 4.57897 3.51252 4.58594 3.447C4.59291 3.38149 4.61276 3.318 4.64434 3.26018C4.67593 3.20236 4.71863 3.15135 4.76999 3.11009C4.82173 3.06457 4.88231 3.03024 4.94794 3.00925C5.01357 2.98825 5.08284 2.98105 5.15138 2.98809C5.21993 2.99513 5.28628 3.01627 5.34627 3.05017C5.40626 3.08407 5.4586 3.13001 5.49999 3.18509L7.91499 6.18509C7.98854 6.27456 8.02874 6.38678 8.02874 6.50259C8.02874 6.61841 7.98854 6.73063 7.91499 6.82009L5.41499 9.82009C5.36484 9.8806 5.30112 9.92843 5.22901 9.95971C5.15691 9.99098 5.07845 10.0048 4.99999 10.0001Z" />
</svg>
