<svg width="40" height="40" viewBox="0 0 40 40" xmlns="http://www.w3.org/2000/svg">
<path d="M8.06753 25.0757C8.41914 25.4272 8.89597 25.6246 9.39315 25.6246C9.89034 25.6246 10.3672 25.4272 10.7188 25.0757L20 15.7944L29.2813 25.0757C29.6349 25.4172 30.1085 25.6062 30.6002 25.6019C31.0918 25.5976 31.5621 25.4005 31.9097 25.0528C32.2573 24.7052 32.4545 24.2349 32.4588 23.7433C32.4631 23.2517 32.2741 22.778 31.9325 22.4244L21.3257 11.8175C20.974 11.466 20.4972 11.2686 20 11.2686C19.5028 11.2686 19.026 11.466 18.6744 11.8175L8.06753 22.4244C7.71602 22.776 7.51855 23.2528 7.51855 23.75C7.51855 24.2472 7.71602 24.724 8.06753 25.0757V25.0757Z" />
</svg>
