<svg width="688" height="433" viewBox="0 0 688 433" fill="none" xmlns="http://www.w3.org/2000/svg">
<g clip-path="url(#clip0_743_44307)">
<path d="M636.268 49.913H104.031C88.567 49.913 76.031 62.449 76.031 77.913V391.6C76.031 407.064 88.567 419.6 104.031 419.6H636.268C651.732 419.6 664.268 407.064 664.268 391.6V77.913C664.268 62.449 651.732 49.913 636.268 49.913Z" fill="white" stroke="#DEE2E6" stroke-width="4"/>
<path d="M580.205 77.0911H539.44C533.04 77.0911 527.851 82.2794 527.851 88.6796C527.851 95.0797 533.04 100.268 539.44 100.268H580.205C586.605 100.268 591.794 95.0797 591.794 88.6796C591.794 82.2794 586.605 77.0911 580.205 77.0911Z" fill="white" stroke="#DEE2E6" stroke-width="4"/>
<path d="M494.144 77.0911H453.379C446.979 77.0911 441.79 82.2794 441.79 88.6796C441.79 95.0797 446.979 100.268 453.379 100.268H494.144C500.544 100.268 505.733 95.0797 505.733 88.6796C505.733 82.2794 500.544 77.0911 494.144 77.0911Z" fill="white" stroke="#DEE2E6" stroke-width="4"/>
<path d="M419.672 88.6796C419.672 82.2794 414.484 77.0911 408.083 77.0911C401.683 77.0911 396.495 82.2794 396.495 88.6796C396.495 95.0797 401.683 100.268 408.083 100.268C414.484 100.268 419.672 95.0797 419.672 88.6796Z" fill="white" stroke="#DEE2E6" stroke-width="4"/>
<path d="M149.553 292.315H228.611V321.268H261.907V292.315H282.335V264.407H261.907V156.557H218.316L149.553 264.89V292.315ZM229.254 264.407H184.618V263.12L227.967 194.518H229.254V264.407ZM370.118 324.887C411.537 324.887 436.549 293.36 436.63 239.073C436.71 185.189 411.376 154.305 370.118 154.305C328.78 154.305 303.687 185.108 303.607 239.073C303.446 293.199 328.619 324.806 370.118 324.887ZM370.118 296.014C351.219 296.014 338.994 277.034 339.074 239.073C339.155 201.676 351.299 182.856 370.118 182.856C388.857 182.856 401.082 201.676 401.082 239.073C401.162 277.034 388.938 296.014 370.118 296.014ZM458.968 292.315H538.026V321.268H571.322V292.315H591.75V264.407H571.322V156.557H527.731L458.968 264.89V292.315ZM538.669 264.407H494.033V263.12L537.382 194.518H538.669V264.407Z" fill="#337AB7" fill-opacity="0.9"/>
<path d="M132.047 86.4151C132.047 81.2656 127.872 77.0911 122.723 77.0911C117.573 77.0911 113.399 81.2656 113.399 86.4151C113.399 91.5646 117.573 95.7391 122.723 95.7391C127.872 95.7391 132.047 91.5646 132.047 86.4151Z" fill="white" stroke="#E9ECEF" stroke-width="4"/>
<path d="M83.698 298.712C90.2332 298.712 95.531 304.01 95.531 310.545C95.531 317.08 90.2332 322.378 83.698 322.378C77.1628 322.378 71.865 317.08 71.865 310.545C71.865 304.01 77.1628 298.712 83.698 298.712Z" fill="#34495E"/>
<path d="M673.404 170.957C665.479 175.532 655.346 172.817 650.77 164.892C646.195 156.967 648.91 146.834 656.835 142.258C664.76 137.683 674.893 140.398 679.469 148.323C684.044 156.248 681.329 166.381 673.404 170.957Z" fill="#34495E"/>
<path d="M363.813 100.921C356.993 100.921 351.464 95.3922 351.464 88.572C351.464 81.7519 356.993 76.223 363.813 76.223C370.633 76.223 376.162 81.7519 376.162 88.572C376.162 95.3922 370.633 100.921 363.813 100.921Z" fill="#DEE2E6"/>
<path d="M216.16 59.268C225.237 59.268 232.595 51.9097 232.595 42.8329C232.595 33.7561 225.237 26.3979 216.16 26.3979C207.083 26.3979 199.725 33.7561 199.725 42.8329C199.725 51.9097 207.083 59.268 216.16 59.268Z" fill="#34495E"/>
<path d="M451.114 341.2C443.609 341.2 437.525 347.284 437.525 354.789C437.525 362.294 443.609 368.378 451.114 368.378C458.619 368.378 464.703 362.294 464.703 354.789C464.703 347.284 458.619 341.2 451.114 341.2Z" fill="#34495E"/>
<path d="M199.76 393.358C192.862 393.358 187.27 387.766 187.27 380.868C187.27 373.97 192.862 368.378 199.76 368.378C206.658 368.378 212.25 373.97 212.25 380.868C212.25 387.766 206.658 393.358 199.76 393.358Z" fill="#DEE2E6"/>
<path d="M324.767 334.557C329.244 337.141 330.778 342.866 328.193 347.343C325.609 351.82 319.884 353.353 315.407 350.769C310.93 348.184 309.397 342.46 311.981 337.983C314.566 333.506 320.29 331.972 324.767 334.557Z" fill="#DEE2E6"/>
<path d="M633.457 74.4778L616.433 91.5021C615.813 92.1223 615.813 93.1276 616.433 93.7475C617.052 94.3675 618.058 94.3673 618.678 93.7472L635.702 76.7229C636.322 76.1027 636.323 75.0974 635.703 74.4774C635.083 73.8575 634.077 73.8577 633.457 74.4778Z" fill="#DEE2E6"/>
<path d="M631.791 86.6676L626.882 91.5771C626.262 92.1972 626.262 93.2025 626.882 93.8225C627.501 94.4424 628.507 94.4423 629.127 93.8221L634.036 88.9127C634.657 88.2925 634.657 87.2872 634.037 86.6673C633.417 86.0473 632.411 86.0475 631.791 86.6676Z" fill="#DEE2E6"/>
<path d="M108.386 375.044L93.1521 390.278C92.5976 390.832 92.5975 391.732 93.1521 392.286L93.1528 392.287C93.7073 392.841 94.6064 392.841 95.161 392.287L110.395 377.053C110.949 376.498 110.949 375.599 110.395 375.045L110.394 375.044C109.84 374.489 108.941 374.489 108.386 375.044Z" fill="#DEE2E6"/>
<path d="M106.895 385.95L102.501 390.344C101.947 390.898 101.947 391.798 102.501 392.352L102.502 392.353C103.056 392.907 103.955 392.907 104.51 392.353L108.904 387.959C109.459 387.404 109.459 386.505 108.904 385.951L108.903 385.95C108.349 385.395 107.45 385.395 106.895 385.95Z" fill="#DEE2E6"/>
<path d="M34.5594 78.7866L64.0083 49.3377C65.0807 48.2653 65.0807 46.5267 64.0083 45.4543C62.9359 44.3819 61.1972 44.3819 60.1249 45.4543L30.676 74.9032C29.6036 75.9755 29.6036 77.7142 30.676 78.7866C31.7484 79.859 33.487 79.859 34.5594 78.7866Z" fill="#DEE2E6"/>
<path d="M37.4432 57.7017L45.9363 49.2087C47.0087 48.1363 47.0087 46.3976 45.9363 45.3253C44.8639 44.2529 43.1252 44.2529 42.0529 45.3252L33.5598 53.8183C32.4874 54.8907 32.4874 56.6294 33.5598 57.7017C34.6322 58.7741 36.3708 58.7741 37.4432 57.7017Z" fill="#DEE2E6"/>
<path d="M619.411 395.566L640.142 374.834C640.897 374.079 640.897 372.855 640.142 372.1C639.387 371.345 638.163 371.345 637.408 372.1L616.677 392.832C615.922 393.587 615.922 394.811 616.677 395.566C617.432 396.32 618.656 396.32 619.411 395.566Z" fill="#DEE2E6"/>
<path d="M621.44 380.723L627.419 374.744C628.174 373.989 628.174 372.765 627.419 372.01C626.664 371.255 625.44 371.255 624.686 372.01L618.706 377.989C617.951 378.744 617.951 379.968 618.706 380.723C619.461 381.478 620.685 381.478 621.44 380.723Z" fill="#DEE2E6"/>
<path fill-rule="evenodd" clip-rule="evenodd" d="M605.429 13.773H608.733C609.532 13.773 610.175 14.423 610.175 15.215V18.519C610.175 19.318 609.525 19.961 608.733 19.961H605.429C604.637 19.961 603.987 19.311 603.987 18.519V15.215C603.987 15.0256 604.024 14.8379 604.096 14.6627C604.168 14.4876 604.274 14.3285 604.408 14.1945C604.542 14.0605 604.702 13.9543 604.877 13.882C605.052 13.8097 605.24 13.7726 605.429 13.773ZM616.884 13.773H620.188C620.98 13.773 621.63 14.423 621.63 15.215V18.519C621.63 19.318 620.98 19.961 620.188 19.961H616.884C616.092 19.961 615.442 19.311 615.442 18.519V15.215C615.442 14.423 616.092 13.773 616.884 13.773ZM628.347 13.773H631.651C632.444 13.773 633.094 14.423 633.094 15.215V18.519C633.094 19.318 632.444 19.961 631.651 19.961H628.347C627.555 19.961 626.905 19.311 626.905 18.519V15.215C626.905 15.0256 626.942 14.8379 627.014 14.6627C627.086 14.4876 627.193 14.3285 627.326 14.1945C627.46 14.0605 627.62 13.9543 627.795 13.882C627.97 13.8097 628.158 13.7726 628.347 13.773ZM639.803 13.773H643.107C643.899 13.773 644.549 14.423 644.549 15.215V18.519C644.549 19.318 643.899 19.961 643.107 19.961H639.803C639.42 19.9608 639.053 19.809 638.781 19.5388C638.51 19.2687 638.356 18.902 638.354 18.519V15.215C638.358 14.8327 638.512 14.4673 638.783 14.1976C639.055 13.9278 639.421 13.7754 639.803 13.773ZM651.259 13.773H654.563C655.362 13.773 656.012 14.423 656.012 15.215V18.519C656.012 19.318 655.362 19.961 654.563 19.961H651.259C650.467 19.961 649.817 19.311 649.817 18.519V15.215C649.817 14.423 650.467 13.773 651.259 13.773ZM617.304 26.265H620.608C621.401 26.265 622.051 26.915 622.051 27.707V31.018C622.051 31.81 621.401 32.46 620.608 32.46H617.304C616.505 32.46 615.862 31.81 615.862 31.018V27.714C615.861 27.524 615.897 27.3356 615.969 27.1597C616.041 26.9839 616.147 26.824 616.281 26.6893C616.415 26.5546 616.575 26.4477 616.75 26.3749C616.926 26.3021 617.114 26.2648 617.304 26.265ZM628.76 26.265H632.064C632.856 26.265 633.506 26.915 633.506 27.707V31.018C633.506 31.81 632.856 32.46 632.064 32.46H628.76C627.968 32.46 627.318 31.81 627.318 31.018V27.714C627.317 27.524 627.353 27.3356 627.425 27.1597C627.497 26.9839 627.603 26.824 627.737 26.6893C627.871 26.5546 628.031 26.4477 628.206 26.3749C628.382 26.3021 628.57 26.2648 628.76 26.265ZM640.216 26.265H643.52C644.319 26.265 644.969 26.915 644.969 27.707V31.018C644.967 31.401 644.813 31.7677 644.542 32.0378C644.27 32.308 643.903 32.4598 643.52 32.46H640.216C639.424 32.46 638.774 31.81 638.774 31.018V27.714C638.774 26.915 639.424 26.265 640.216 26.265ZM628.347 0.35303H631.651C632.444 0.35303 633.094 1.00303 633.094 1.79503V5.10003C633.094 5.89803 632.444 6.54203 631.651 6.54203H628.347C627.555 6.54203 626.905 5.89203 626.905 5.10003V1.79503C626.905 1.60555 626.942 1.41787 627.014 1.24274C627.086 1.06761 627.193 0.908482 627.326 0.774501C627.46 0.64052 627.62 0.534321 627.795 0.461993C627.97 0.389666 628.158 0.352635 628.347 0.35303ZM639.803 0.35303H643.107C643.899 0.35303 644.549 1.00303 644.549 1.79503V5.10003C644.549 5.89803 643.899 6.54203 643.107 6.54203H639.803C639.42 6.54178 639.053 6.38999 638.781 6.11982C638.51 5.84964 638.356 5.48304 638.354 5.10003V1.79503C638.358 1.41268 638.512 1.04728 638.783 0.777553C639.055 0.507828 639.421 0.355368 639.803 0.35303ZM8.66301 403.313H11.967C12.766 403.313 13.409 403.963 13.409 404.755V408.059C13.409 408.858 12.759 409.501 11.967 409.501H8.66301C7.87101 409.501 7.22101 408.851 7.22101 408.059V404.755C7.22062 404.566 7.25765 404.378 7.32997 404.203C7.4023 404.028 7.5085 403.868 7.64248 403.734C7.77646 403.601 7.93558 403.494 8.11071 403.422C8.28584 403.35 8.47354 403.313 8.66301 403.313ZM20.118 403.313H23.422C24.215 403.313 24.865 403.963 24.865 404.755V408.059C24.865 408.858 24.215 409.501 23.422 409.501H20.118C19.326 409.501 18.676 408.851 18.676 408.059V404.755C18.676 403.963 19.326 403.313 20.118 403.313ZM31.581 403.313H34.886C35.678 403.313 36.328 403.963 36.328 404.755V408.059C36.328 408.858 35.678 409.501 34.886 409.501H31.581C30.789 409.501 30.139 408.851 30.139 408.059V404.755C30.1388 404.566 30.1759 404.378 30.2482 404.203C30.3206 404.028 30.4268 403.869 30.5608 403.735C30.6947 403.601 30.8538 403.495 31.0289 403.422C31.2039 403.35 31.3916 403.313 31.581 403.313ZM43.037 403.313H46.341C47.133 403.313 47.783 403.963 47.783 404.755V408.059C47.783 408.858 47.133 409.501 46.341 409.501H43.037C42.654 409.501 42.2866 409.349 42.0152 409.079C41.7437 408.809 41.5901 408.442 41.588 408.059V404.755C41.5922 404.373 41.7464 404.007 42.0175 403.738C42.2885 403.468 42.6546 403.315 43.037 403.313ZM54.493 403.313H57.797C58.596 403.313 59.246 403.963 59.246 404.755V408.059C59.246 408.858 58.596 409.501 57.797 409.501H54.493C53.701 409.501 53.051 408.851 53.051 408.059V404.755C53.051 403.963 53.701 403.313 54.493 403.313ZM20.539 415.805H23.843C24.635 415.805 25.285 416.455 25.285 417.247V420.558C25.285 421.35 24.635 422 23.843 422H20.539C19.74 422 19.096 421.35 19.096 420.558V417.254C19.0951 417.064 19.1317 416.876 19.2039 416.7C19.276 416.524 19.3821 416.364 19.5162 416.229C19.6503 416.095 19.8097 415.988 19.9853 415.915C20.1608 415.842 20.349 415.805 20.539 415.805ZM31.994 415.805H35.298C36.09 415.805 36.74 416.455 36.74 417.247V420.558C36.74 421.35 36.09 422 35.298 422H31.994C31.202 422 30.552 421.35 30.552 420.558V417.254C30.5508 417.064 30.5873 416.876 30.6592 416.7C30.7312 416.524 30.8372 416.364 30.9713 416.229C31.1053 416.095 31.2647 415.988 31.4402 415.915C31.6158 415.842 31.804 415.805 31.994 415.805ZM43.45 415.805H46.754C47.553 415.805 48.203 416.455 48.203 417.247V420.558C48.2009 420.941 48.0473 421.308 47.7759 421.578C47.5044 421.848 47.137 422 46.754 422H43.45C42.658 422 42.008 421.35 42.008 420.558V417.254C42.008 416.455 42.658 415.805 43.45 415.805ZM31.582 389.893H34.886C35.678 389.893 36.328 390.543 36.328 391.336V394.64C36.328 395.439 35.678 396.082 34.886 396.082H31.582C30.789 396.082 30.139 395.432 30.139 394.64V391.336C30.1386 391.146 30.1757 390.959 30.248 390.783C30.3204 390.608 30.4267 390.449 30.5608 390.315C30.6948 390.181 30.8541 390.074 31.0293 390.002C31.2046 389.93 31.3924 389.893 31.582 389.893ZM43.037 389.893H46.341C47.133 389.893 47.783 390.543 47.783 391.336V394.64C47.783 395.439 47.133 396.082 46.341 396.082H43.037C42.654 396.082 42.2866 395.93 42.0152 395.66C41.7437 395.39 41.5901 395.023 41.588 394.64V391.336C41.5919 390.953 41.7461 390.588 42.0171 390.318C42.2882 390.048 42.6545 389.895 43.037 389.893Z" fill="#DEE2E6"/>
<path fill-rule="evenodd" clip-rule="evenodd" d="M77.882 236.922C53.242 236.922 33.265 216.663 33.265 191.676C33.265 166.689 53.242 146.431 77.882 146.431C102.522 146.431 122.499 166.689 122.499 191.676C122.499 216.663 102.522 236.922 77.882 236.922Z" fill="#34495E"/>
<path d="M95.857 172.476L77.009 192.585L65.693 180.521" stroke="white" stroke-width="7.405" stroke-linecap="round" stroke-linejoin="round"/>
<path d="M58.178 211.835L77.026 191.726L88.342 203.79" stroke="white" stroke-width="7.405" stroke-linecap="round" stroke-linejoin="round"/>
</g>
<defs>
<clipPath id="clip0_743_44307">
<rect width="688" height="433" fill="white"/>
</clipPath>
</defs>
</svg>
