<svg width="30" height="30" viewBox="0 0 30 30" fill="none" xmlns="http://www.w3.org/2000/svg">
<g clip-path="url(#clip0_1177_65287)">
<path d="M18.8376 14.3022L6.97705 12.2092V27.6745C6.97705 28.3805 7.54951 28.9536 8.25615 28.9536H28.7218C29.4278 28.9536 30.0009 28.3811 30.0009 27.6745V21.9768L18.8376 14.3022Z" fill="#185C37"/>
<path d="M18.8376 1.04639H8.25615C7.5501 1.04639 6.97705 1.61885 6.97705 2.32549V8.02314L18.8376 14.9999L25.1165 17.0929L30.0003 14.9999V8.02314L18.8376 1.04639Z" fill="#21A366"/>
<path d="M6.97705 8.02319H18.8376V15H6.97705V8.02319Z" fill="#107C41"/>
<path opacity="0.1" d="M15.4655 6.62817H6.97705V24.0698H15.4655C16.171 24.0674 16.7423 23.4961 16.7446 22.7907V7.90669C16.7423 7.20122 16.171 6.63052 15.4655 6.62817Z" fill="black"/>
<path opacity="0.2" d="M14.7683 7.32544H6.97705V24.7676H14.7683C15.4737 24.7653 16.045 24.194 16.0474 23.4885V8.60454C16.0444 7.89907 15.4731 7.32778 14.7683 7.32544Z" fill="black"/>
<path opacity="0.2" d="M14.7683 7.32544H6.97705V23.3719H14.7683C15.4737 23.3696 16.045 22.7983 16.0474 22.0928V8.60454C16.0444 7.89907 15.4731 7.32778 14.7683 7.32544Z" fill="black"/>
<path opacity="0.2" d="M14.0704 7.32544H6.97705V23.3719H14.0704C14.7759 23.3696 15.3472 22.7983 15.3495 22.0928V8.60454C15.3466 7.89907 14.7759 7.32778 14.0704 7.32544Z" fill="black"/>
<path d="M1.2791 7.32544H14.0701C14.7762 7.32544 15.3492 7.8979 15.3492 8.60454V21.3956C15.3492 22.1016 14.7768 22.6747 14.0701 22.6747H1.2791C0.572461 22.6747 0 22.1022 0 21.3956V8.60454C0 7.8979 0.572461 7.32544 1.2791 7.32544Z" fill="url(#paint0_linear_1177_65287)"/>
<path d="M3.96094 19.1566L6.65098 14.9883L4.18594 10.8428H6.16875L7.51406 13.4941C7.63828 13.7461 7.72324 13.933 7.76953 14.0566H7.78711C7.87558 13.8557 7.96875 13.6605 8.06601 13.4713L9.5039 10.8445H11.3244L8.79668 14.9654L11.3883 19.1572H9.45117L7.89726 16.2475C7.82402 16.1238 7.76191 15.9938 7.71152 15.859H7.68867C7.64297 15.9908 7.58262 16.1174 7.50879 16.2357L5.90918 19.1578L3.96094 19.1566Z" fill="white"/>
<path d="M28.721 1.04639H18.8374V8.02314H30.0001V2.32549C30.0001 1.61885 29.4276 1.04639 28.721 1.04639Z" fill="#33C481"/>
<path d="M18.8374 15H30.0001V21.9768H18.8374V15Z" fill="#107C41"/>
</g>
<defs>
<linearGradient id="paint0_linear_1177_65287" x1="2.6664" y1="6.32637" x2="12.6824" y2="23.6737" gradientUnits="userSpaceOnUse">
<stop stop-color="#18884F"/>
<stop offset="0.5" stop-color="#117E43"/>
<stop offset="1" stop-color="#0B6631"/>
</linearGradient>
<clipPath id="clip0_1177_65287">
<rect width="30" height="30" fill="white"/>
</clipPath>
</defs>
</svg>
