<svg width="35" height="35" viewBox="0 0 35 35" fill="none" xmlns="http://www.w3.org/2000/svg">
<path d="M17.4998 2.552C18.7105 2.55192 19.8752 3.0151 20.7552 3.84652C21.6351 4.67794 22.1636 5.81458 22.2321 7.02325L22.2394 7.29159H29.8957C30.1728 7.29167 30.4395 7.39694 30.642 7.58613C30.8445 7.77532 30.9677 8.03431 30.9865 8.31079C31.0054 8.58726 30.9187 8.86059 30.7438 9.07556C30.5689 9.29053 30.319 9.4311 30.0444 9.46888L29.8957 9.47909H28.7348L26.8682 28.4666C26.7746 29.4132 26.3477 30.2957 25.6636 30.9566C24.9794 31.6175 24.0827 32.0137 23.1334 32.0745L22.8767 32.0833H12.123C11.1713 32.0832 10.2507 31.7448 9.52568 31.1285C8.80062 30.5121 8.31834 29.6581 8.16505 28.7189L8.1315 28.4651L6.26338 9.47909H5.104C4.8397 9.47907 4.58434 9.38336 4.38515 9.20963C4.18595 9.03591 4.05641 8.79593 4.02046 8.53409L4.01025 8.38534C4.01027 8.12103 4.10598 7.86567 4.27971 7.66648C4.45343 7.46729 4.6934 7.33774 4.95525 7.30179L5.104 7.29159H12.7603C12.7603 6.03457 13.2596 4.82904 14.1484 3.94019C15.0373 3.05135 16.2428 2.552 17.4998 2.552V2.552ZM26.5371 9.47909H8.46109L10.3088 28.2508C10.3497 28.6696 10.5343 29.0614 10.8312 29.3596C11.1281 29.6579 11.5191 29.8442 11.9378 29.887L12.123 29.8958H22.8767C23.7517 29.8958 24.494 29.276 24.6632 28.4345L24.6923 28.2508L26.5357 9.47909H26.5371ZM20.0519 13.4895C20.3162 13.4895 20.5716 13.5852 20.7708 13.759C20.97 13.9327 21.0995 14.1727 21.1355 14.4345L21.1457 14.5833V24.7916C21.1456 25.0687 21.0403 25.3355 20.8511 25.5379C20.6619 25.7404 20.4029 25.8636 20.1265 25.8825C19.85 25.9013 19.5767 25.8146 19.3617 25.6397C19.1467 25.4648 19.0062 25.2149 18.9684 24.9403L18.9582 24.7916V14.5833C18.9582 14.2932 19.0734 14.015 19.2785 13.8099C19.4836 13.6047 19.7618 13.4895 20.0519 13.4895ZM14.9478 13.4895C15.2121 13.4895 15.4674 13.5852 15.6666 13.759C15.8658 13.9327 15.9954 14.1727 16.0313 14.4345L16.0415 14.5833V24.7916C16.0414 25.0687 15.9361 25.3355 15.747 25.5379C15.5578 25.7404 15.2988 25.8636 15.0223 25.8825C14.7458 25.9013 14.4725 25.8146 14.2575 25.6397C14.0426 25.4648 13.902 25.2149 13.8642 24.9403L13.854 24.7916V14.5833C13.854 14.2932 13.9692 14.015 14.1744 13.8099C14.3795 13.6047 14.6577 13.4895 14.9478 13.4895ZM17.4998 4.7395C16.8594 4.73953 16.2423 4.98038 15.7711 5.41424C15.3 5.84811 15.0092 6.44327 14.9565 7.08159L14.9478 7.29159H20.0519C20.0519 6.61473 19.783 5.9656 19.3044 5.48699C18.8258 5.00838 18.1767 4.7395 17.4998 4.7395Z" fill="#CC3333"/>
</svg>
