<svg width="36" height="35" viewBox="0 0 36 35" xmlns="http://www.w3.org/2000/svg">
<g clip-path="url(#clip0_846_60420)">
<path d="M35.2412 33.1201L25.5684 23.3789C27.7786 20.7357 28.8838 17.6937 28.8838 14.2529C28.8838 12.3161 28.5078 10.4704 27.7559 8.71582C27.0039 6.96126 25.9956 5.44596 24.731 4.16992C23.4663 2.89388 21.9567 1.87988 20.2021 1.12793C18.4476 0.375977 16.6019 0 14.665 0C12.0902 0 9.70898 0.632324 7.52148 1.89697C5.33398 3.16162 3.60791 4.8877 2.34326 7.0752C1.07861 9.2627 0.446289 11.6496 0.446289 14.2358C0.446289 16.8221 1.07861 19.209 2.34326 21.3965C3.60791 23.584 5.33398 25.3101 7.52148 26.5747C9.70898 27.8394 12.0902 28.4717 14.665 28.4717C18.2197 28.4717 21.3415 27.2982 24.0303 24.9512L33.6689 34.6582C33.7601 34.7493 33.8569 34.8234 33.9595 34.8804C34.062 34.9373 34.1702 34.9715 34.2842 34.9829C34.3981 34.9943 34.512 34.9943 34.626 34.9829C34.7399 34.9715 34.8481 34.9373 34.9507 34.8804C35.0532 34.8234 35.1501 34.7493 35.2412 34.6582C35.4463 34.4531 35.5488 34.1968 35.5488 33.8892C35.5488 33.5815 35.4463 33.3252 35.2412 33.1201ZM14.665 26.25C12.4775 26.25 10.4609 25.7088 8.61523 24.6265C6.76953 23.5441 5.3112 22.0801 4.24023 20.2344C3.16927 18.3887 2.63379 16.3835 2.63379 14.2188C2.63379 12.054 3.16927 10.0488 4.24023 8.20312C5.3112 6.35742 6.76953 4.89339 8.61523 3.81104C10.4609 2.72868 12.4718 2.1875 14.6479 2.1875C16.8241 2.1875 18.835 2.72868 20.6807 3.81104C22.5264 4.89339 23.9904 6.35742 25.0728 8.20312C26.1551 10.0488 26.6963 12.054 26.6963 14.2188C26.6963 17.4316 25.5798 20.2002 23.3467 22.5244C21.1364 24.8258 18.4476 26.0677 15.2803 26.25H14.665ZM20.1338 13.125H15.7588V8.75C15.7588 8.45378 15.6506 8.19743 15.4341 7.98096C15.2176 7.76449 14.9556 7.65625 14.6479 7.65625C14.3403 7.65625 14.084 7.76449 13.8789 7.98096C13.6738 8.19743 13.5713 8.45378 13.5713 8.75V13.125H9.19629C8.87728 13.125 8.61523 13.2332 8.41016 13.4497C8.20508 13.6662 8.10254 13.9225 8.10254 14.2188C8.10254 14.515 8.20508 14.7713 8.41016 14.9878C8.61523 15.2043 8.87728 15.3125 9.19629 15.3125H13.5713V19.6875C13.5713 19.9837 13.6738 20.2401 13.8789 20.4565C14.084 20.673 14.3403 20.7812 14.6479 20.7812C14.9556 20.7812 15.2176 20.673 15.4341 20.4565C15.6506 20.2401 15.7588 19.9837 15.7588 19.6875V15.3125H20.1338C20.43 15.3125 20.6864 15.2043 20.9028 14.9878C21.1193 14.7713 21.2275 14.515 21.2275 14.2188C21.2275 13.9225 21.1193 13.6662 20.9028 13.4497C20.6864 13.2332 20.43 13.125 20.1338 13.125Z" />
</g>
<defs>
<clipPath id="clip0_846_60420">
<rect width="35.55" height="35" />
</clipPath>
</defs>
</svg>
