<svg width="35" height="35" viewBox="0 0 35 35" xmlns="http://www.w3.org/2000/svg">
<path d="M1.09375 21.6562C1.38383 21.6562 1.66203 21.7715 1.86715 21.9766C2.07227 22.1817 2.1875 22.4599 2.1875 22.75V28.2188C2.1875 28.7989 2.41797 29.3553 2.8282 29.7655C3.23844 30.1758 3.79484 30.4062 4.375 30.4062H30.625C31.2052 30.4062 31.7616 30.1758 32.1718 29.7655C32.582 29.3553 32.8125 28.7989 32.8125 28.2188V22.75C32.8125 22.4599 32.9277 22.1817 33.1329 21.9766C33.338 21.7715 33.6162 21.6562 33.9062 21.6562C34.1963 21.6562 34.4745 21.7715 34.6796 21.9766C34.8848 22.1817 35 22.4599 35 22.75V28.2188C35 29.3791 34.5391 30.4919 33.7186 31.3123C32.8981 32.1328 31.7853 32.5938 30.625 32.5938H4.375C3.21468 32.5938 2.10188 32.1328 1.28141 31.3123C0.460936 30.4919 0 29.3791 0 28.2188V22.75C0 22.4599 0.115234 22.1817 0.320352 21.9766C0.52547 21.7715 0.803669 21.6562 1.09375 21.6562V21.6562Z" />
<path d="M16.726 25.9306C16.8276 26.0325 16.9483 26.1133 17.0812 26.1684C17.2141 26.2236 17.3565 26.252 17.5004 26.252C17.6443 26.252 17.7867 26.2236 17.9196 26.1684C18.0525 26.1133 18.1732 26.0325 18.2748 25.9306L24.8373 19.3681C25.0427 19.1627 25.158 18.8842 25.158 18.5938C25.158 18.3033 25.0427 18.0248 24.8373 17.8194C24.6319 17.614 24.3534 17.4986 24.0629 17.4986C23.7725 17.4986 23.4939 17.614 23.2885 17.8194L18.5942 22.5159V3.28125C18.5942 2.99117 18.4789 2.71297 18.2738 2.50785C18.0687 2.30273 17.7905 2.1875 17.5004 2.1875C17.2103 2.1875 16.9321 2.30273 16.727 2.50785C16.5219 2.71297 16.4067 2.99117 16.4067 3.28125V22.5159L11.7123 17.8194C11.5069 17.614 11.2284 17.4986 10.9379 17.4986C10.6475 17.4986 10.3689 17.614 10.1635 17.8194C9.95815 18.0248 9.84277 18.3033 9.84277 18.5938C9.84277 18.8842 9.95815 19.1627 10.1635 19.3681L16.726 25.9306V25.9306Z" />
</svg>
