<svg width="20" height="20" viewBox="0 0 20 20" xmlns="http://www.w3.org/2000/svg">
<path d="M14.1667 10V9.92501C14.1629 9.84502 14.146 9.7662 14.1167 9.69167C14.0944 9.63452 14.0635 9.58112 14.025 9.53334C14.0029 9.49531 13.9779 9.45908 13.95 9.42501L11.5667 6.92501C11.4912 6.84567 11.4008 6.78198 11.3007 6.73757C11.2006 6.69317 11.0927 6.66892 10.9832 6.66621C10.762 6.66074 10.5478 6.74334 10.3875 6.89584C10.2273 7.04834 10.1342 7.25825 10.1287 7.47938C10.1233 7.70052 10.2059 7.91477 10.3584 8.07501L11.3834 9.16667H6.66671C6.44569 9.16667 6.23373 9.25447 6.07745 9.41075C5.92117 9.56703 5.83337 9.77899 5.83337 10C5.83337 10.221 5.92117 10.433 6.07745 10.5893C6.23373 10.7455 6.44569 10.8333 6.66671 10.8333H11.325L10.2417 11.9083C10.1636 11.9858 10.1016 12.078 10.0593 12.1795C10.017 12.2811 9.99521 12.39 9.99521 12.5C9.99521 12.61 10.017 12.7189 10.0593 12.8205C10.1016 12.922 10.1636 13.0142 10.2417 13.0917C10.3192 13.1698 10.4113 13.2318 10.5129 13.2741C10.6144 13.3164 10.7234 13.3382 10.8334 13.3382C10.9434 13.3382 11.0523 13.3164 11.1539 13.2741C11.2554 13.2318 11.3476 13.1698 11.425 13.0917L13.925 10.5917C14 10.5149 14.0594 10.4243 14.1 10.325C14.1438 10.2222 14.1665 10.1117 14.1667 10Z" />
</svg>
