<svg width="11" height="14" viewBox="0 0 11 14" fill="none" xmlns="http://www.w3.org/2000/svg">
<path d="M6.85667 8.75C9.295 8.75 11 7.1242 11 4.7871C11 2.45 9.295 0.875 6.85667 0.875H2.17708C1.98725 0.875 1.83333 1.02192 1.83333 1.20312V6.85322H0.34375C0.153914 6.85322 0 7.00014 0 7.18134V8.42188C0 8.60308 0.153914 8.75 0.34375 8.75H1.83333V9.625H0.34375C0.153914 9.625 0 9.77192 0 9.95312V11.0469C0 11.2281 0.153914 11.375 0.34375 11.375H1.83333V12.7969C1.83333 12.9781 1.98725 13.125 2.17708 13.125H3.85458C4.04442 13.125 4.19833 12.9781 4.19833 12.7969V11.375H8.82292C9.01275 11.375 9.16667 11.2281 9.16667 11.0469V9.95312C9.16667 9.77192 9.01275 9.625 8.82292 9.625H4.19833V8.75H6.85667ZM4.19833 2.75483H6.45333C7.79167 2.75483 8.59833 3.5508 8.59833 4.7871C8.59833 6.04032 7.79167 6.85322 6.41667 6.85322H4.19833V2.75483Z" fill="#34495E"/>
</svg>
