<svg width="35" height="35" viewBox="0 0 35 35" fill="none" xmlns="http://www.w3.org/2000/svg">
<path d="M27.7741 10.7931C28.3254 10.2419 28.6287 9.5098 28.6287 8.73105C28.6287 7.9523 28.3254 7.22021 27.7741 6.66896L25.4612 4.35605C24.91 3.8048 24.1779 3.50146 23.3991 3.50146C22.6204 3.50146 21.8883 3.8048 21.3385 4.35459L5.8335 19.8115V26.25H12.2691L27.7741 10.7931ZM23.3991 6.41813L25.7135 8.72959L23.3947 11.0396L21.0818 8.72813L23.3991 6.41813ZM8.75016 23.3333V21.0219L19.0168 10.7873L21.3297 13.1002L11.0645 23.3333H8.75016ZM5.8335 29.1667H29.1668V32.0833H5.8335V29.1667Z" fill="#337AB7"/>
</svg>
