<svg width="35" height="35" viewBox="0 0 35 35" xmlns="http://www.w3.org/2000/svg">
<path d="M19.5564 17.5001L25.8272 11.2439C26.1018 10.9692 26.2561 10.5968 26.2561 10.2084C26.2561 9.82008 26.1018 9.44763 25.8272 9.17302C25.5526 8.89841 25.1802 8.74414 24.7918 8.74414C24.4035 8.74414 24.031 8.89841 23.7564 9.17302L17.5002 15.4439L11.2439 9.17302C10.9693 8.89841 10.5968 8.74414 10.2085 8.74414C9.82013 8.74414 9.44768 8.89841 9.17307 9.17302C8.89846 9.44763 8.74419 9.82008 8.74419 10.2084C8.74419 10.5968 8.89846 10.9692 9.17307 11.2439L15.4439 17.5001L9.17307 23.7564C9.03638 23.8919 8.92789 24.0532 8.85386 24.2309C8.77982 24.4086 8.7417 24.5993 8.7417 24.7918C8.7417 24.9843 8.77982 25.1749 8.85386 25.3526C8.92789 25.5303 9.03638 25.6916 9.17307 25.8272C9.30864 25.9639 9.46994 26.0724 9.64765 26.1464C9.82536 26.2204 10.016 26.2586 10.2085 26.2586C10.401 26.2586 10.5916 26.2204 10.7693 26.1464C10.947 26.0724 11.1083 25.9639 11.2439 25.8272L17.5002 19.5564L23.7564 25.8272C23.892 25.9639 24.0533 26.0724 24.231 26.1464C24.4087 26.2204 24.5993 26.2586 24.7918 26.2586C24.9843 26.2586 25.175 26.2204 25.3527 26.1464C25.5304 26.0724 25.6917 25.9639 25.8272 25.8272C25.9639 25.6916 26.0724 25.5303 26.1465 25.3526C26.2205 25.1749 26.2586 24.9843 26.2586 24.7918C26.2586 24.5993 26.2205 24.4086 26.1465 24.2309C26.0724 24.0532 25.9639 23.8919 25.8272 23.7564L19.5564 17.5001Z" />
</svg>
