<svg width="20" height="21" viewBox="0 0 20 21" xmlns="http://www.w3.org/2000/svg">
<path d="M2.5 8.2975V14.5C2.5 15.163 2.76339 15.7989 3.23223 16.2678C3.70107 16.7366 4.33696 17 5 17H15C15.663 17 16.2989 16.7366 16.7678 16.2678C17.2366 15.7989 17.5 15.163 17.5 14.5V7C17.5 6.33696 17.2366 5.70107 16.7678 5.23223C16.2989 4.76339 15.663 4.5 15 4.5H5C4.33696 4.5 3.70107 4.76339 3.23223 5.23223C2.76339 5.70107 2.5 6.33696 2.5 7V8.2975ZM5 5.75H15C15.3315 5.75 15.6495 5.8817 15.8839 6.11612C16.1183 6.35054 16.25 6.66848 16.25 7V7.925L10 11.29L3.75 7.925V7C3.75 6.66848 3.8817 6.35054 4.11612 6.11612C4.35054 5.8817 4.66848 5.75 5 5.75ZM3.75 9.345L9.70375 12.55C9.7948 12.599 9.89659 12.6247 10 12.6247C10.1034 12.6247 10.2052 12.599 10.2963 12.55L16.25 9.345V14.5C16.25 14.8315 16.1183 15.1495 15.8839 15.3839C15.6495 15.6183 15.3315 15.75 15 15.75H5C4.66848 15.75 4.35054 15.6183 4.11612 15.3839C3.8817 15.1495 3.75 14.8315 3.75 14.5V9.345Z" />
</svg>
