<svg id="Capa_1" enable-background="new 0 0 512 512" height="512" viewBox="0 0 512 512" width="512" xmlns="http://www.w3.org/2000/svg"><g><g><g><path d="m458.332 0h-321.631c-5.522 0-10 4.477-10 10v264.415c-6.148 1.218-12.117 3.564-17.566 7.054-.031.02-.062.04-.094.061-18.428 12.092-27.032 34.557-21.409 55.9l13.977 53.055h-6.977c-28.102 0-50.964 22.863-50.964 50.965v17.673c0 5.523 4.478 10 10 10h3.078v15.756c0 14.956 12.167 27.123 27.122 27.123h105.658c14.955 0 27.122-12.167 27.122-27.123v-15.756h3.078c5.522 0 10-4.477 10-10 0 0-.021-18.437-.029-18.82h228.635c5.522 0 10-4.477 10-10v-420.303c0-5.523-4.478-10-10-10zm-351.36 332.334c-3.478-13.203 1.622-26.563 12.994-34.053 6.979-4.451 15.349-5.846 23.201-4.188 16.988 3.66 27.648 21.542 23.243 38.274l-15.307 58.116h-28.812zm-43.304 109.115c0-17.074 13.891-30.965 30.964-30.965l84.134.003c16.912 0 30.961 14.129 30.961 30.962v7.673h-146.059zm132.98 43.428c0 3.927-3.195 7.123-7.122 7.123h-105.658c-3.927 0-7.122-3.195-7.122-7.123v-15.756h119.902zm251.684-64.575h-223.194c-8.182-17.891-26.668-29.818-46.376-29.818h-6.972l13.972-53.055c7.335-27.844-10.68-57.392-39.061-63.046v-254.383h301.631z"/><path d="m386.022 295.585h-97.267c-12.443 0-22.567 10.124-22.567 22.568v42.121c0 12.444 10.124 22.568 22.567 22.568h97.267c12.444 0 22.568-10.124 22.568-22.568v-42.121c.001-12.444-10.123-22.568-22.568-22.568zm2.569 64.688c0 1.416-1.152 2.568-2.568 2.568h-97.267c-1.416 0-2.567-1.152-2.567-2.568v-42.121c0-1.416 1.151-2.568 2.567-2.568h97.267c1.416 0 2.568 1.152 2.568 2.568z"/><path d="m251.905 100.879h146.686c5.522 0 10-4.477 10-10s-4.478-10-10-10h-146.686c-5.522 0-10 4.477-10 10s4.478 10 10 10z"/><path d="m206.648 171.658h191.942c5.522 0 10-4.477 10-10s-4.478-10-10-10h-191.942c-5.522 0-10 4.477-10 10s4.478 10 10 10z"/><path d="m201.391 242.437h197.2c5.522 0 10-4.477 10-10s-4.478-10-10-10h-197.2c-5.522 0-10 4.477-10 10s4.477 10 10 10z"/><path d="m197.41 94.7c3.43 8.375 15.804 7.89 18.7-.608 2.942-8.63-6.789-16.432-14.599-11.791-4.198 2.495-5.978 7.897-4.101 12.399z"/></g></g></g></svg>