<svg id="Layer_5" enable-background="new 0 0 62 61.372" height="512" viewBox="0 0 62 61.372" width="512" xmlns="http://www.w3.org/2000/svg"><g><path d="m13 56.372c1.654 0 3-1.346 3-3s-1.346-3-3-3-3 1.346-3 3 1.346 3 3 3zm0-4c.552 0 1 .448 1 1s-.448 1-1 1-1-.448-1-1 .448-1 1-1z"/><path d="m31 56.372c1.654 0 3-1.346 3-3s-1.346-3-3-3-3 1.346-3 3 1.346 3 3 3zm0-4c.552 0 1 .448 1 1s-.448 1-1 1-1-.448-1-1 .448-1 1-1z"/><path d="m49 50.372c-1.654 0-3 1.346-3 3s1.346 3 3 3 3-1.346 3-3-1.346-3-3-3zm0 4c-.552 0-1-.448-1-1s.448-1 1-1 1 .448 1 1-.448 1-1 1z"/><path d="m56 45.451v-12.08h-14v12h-4v-12h-14v12h-4v-12h-14v12.08c-3.386.488-6 3.401-6 6.92v2c0 3.859 3.141 7 7 7h48c3.859 0 7-3.141 7-7v-2c0-3.518-2.614-6.432-6-6.92zm-8-10.079h2v2h-2zm-4 0h2v4h6v-4h2v10h-10zm5 23c-2.757 0-5-2.243-5-5s2.243-5 5-5 5 2.243 5 5-2.243 5-5 5zm-7-5c0 2.548 1.373 4.775 3.413 6h-10.826c2.04-1.225 3.413-3.452 3.413-6s-1.373-4.775-3.413-6h10.827c-2.041 1.224-3.414 3.452-3.414 6zm-29-5c2.757 0 5 2.243 5 5s-2.243 5-5 5-5-2.243-5-5 2.243-5 5-5zm7 5c0-2.548-1.373-4.775-3.413-6h10.827c-2.04 1.225-3.413 3.452-3.413 6s1.373 4.775 3.413 6h-10.827c2.04-1.225 3.413-3.453 3.413-6zm16 0c0 2.757-2.243 5-5 5s-5-2.243-5-5 2.243-5 5-5 5 2.243 5 5zm-6-18h2v2h-2zm-4 0h2v4h6v-4h2v10h-10zm-14 0h2v2h-2zm-2 0v4h6v-4h2v10h-10v-10zm-8 19v-2c0-2.757 2.243-5 5-5h2.413c-2.04 1.224-3.413 3.452-3.413 6s1.373 4.775 3.413 6h-2.413c-2.757 0-5-2.244-5-5zm58 0c0 2.757-2.243 5-5 5h-2.413c2.04-1.225 3.413-3.452 3.413-6s-1.373-4.775-3.413-6h2.413c2.757 0 5 2.243 5 5z"/><path d="m22.024 24.772-.727 1.453 3.848 3.848 1.453-.727c.375.184.765.344 1.166.48l.515 1.544h5.441l.515-1.544c.401-.136.791-.297 1.166-.48l1.453.727 3.848-3.848-.727-1.453c.184-.375.344-.765.48-1.166l1.545-.514v-5.441l-1.544-.515c-.137-.4-.297-.79-.48-1.166l.727-1.453-3.848-3.848-1.453.727c-.375-.184-.765-.344-1.166-.48l-.515-1.544h-5.441l-.515 1.544c-.401.136-.791.297-1.166.48l-1.453-.727-3.848 3.848.727 1.453c-.184.375-.344.765-.48 1.166l-1.545.515v5.441l1.544.515c.137.4.297.79.48 1.165zm-.024-5.68 1.164-.388.144-.509c.173-.608.412-1.189.713-1.726l.258-.462-.547-1.095 1.809-1.809 1.097.547.462-.259c.534-.3 1.114-.539 1.724-.711l.51-.144.389-1.165h2.559l.389 1.165.51.144c.609.172 1.189.411 1.724.711l.462.259 1.097-.547 1.809 1.809-.547 1.095.258.462c.301.537.54 1.118.713 1.726l.144.509 1.159.388v2.559l-1.164.388-.144.509c-.173.608-.412 1.189-.713 1.726l-.258.462.547 1.095-1.808 1.809-1.097-.547-.462.259c-.534.3-1.114.539-1.725.711l-.51.144-.388 1.165h-2.559l-.388-1.165-.51-.144c-.61-.172-1.19-.411-1.725-.711l-.462-.259-1.094.547-1.809-1.809.547-1.095-.258-.462c-.301-.537-.54-1.118-.713-1.726l-.144-.509-1.163-.388z"/><path d="m31 26.372c3.309 0 6-2.691 6-6s-2.691-6-6-6-6 2.691-6 6 2.691 6 6 6zm0-10c2.206 0 4 1.794 4 4s-1.794 4-4 4-4-1.794-4-4 1.794-4 4-4z"/><path d="m48.252 11.971c-.314-.719-.672-1.426-1.063-2.1l-1.73 1.002c.353.61.676 1.249.961 1.9z"/><path d="m45.66 31.584 5.711-2.284-.742-1.857-2.521 1.008c1.252-2.758 1.892-5.467 1.892-8.079 0-2.15-.323-4.27-.962-6.3l-1.908.6c.577 1.835.87 3.753.87 5.7 0 2.602-.721 5.338-2.138 8.15l-2.062-2.75-1.6 1.2z"/><path d="m31 3.372c2.602 0 5.338.721 8.149 2.138l-2.749 2.062 1.199 1.6 4.613-3.459-2.283-5.713-1.857.743 1.008 2.52c-2.759-1.251-5.468-1.891-8.08-1.891-2.148 0-4.269.324-6.3.961l.6 1.908c1.837-.577 3.755-.869 5.7-.869z"/><path d="m23.4 4.952-.8-1.832c-.72.314-1.426.672-2.101 1.062l1.002 1.731c.609-.353 1.249-.677 1.899-.961z"/><path d="m14.811 30.873 1.73-1.002c-.353-.61-.676-1.249-.961-1.9l-1.832.802c.315.719.672 1.425 1.063 2.1z"/><path d="m13.892 12.292c-1.252 2.758-1.892 5.467-1.892 8.08 0 2.15.323 4.27.962 6.3l1.908-.6c-.577-1.835-.87-3.753-.87-5.7 0-2.602.721-5.338 2.138-8.15l2.062 2.75 1.6-1.2-3.46-4.613-5.711 2.284.742 1.857z"/></g></svg>