<svg width="50" height="50" viewBox="0 0 50 50" xmlns="http://www.w3.org/2000/svg">
<path d="M45.2508 38.2995L43.633 32.2624V32.2622L37.1625 8.11414C36.974 7.41413 36.5156 6.81745 35.8879 6.45497C35.2601 6.09248 34.5141 5.99379 33.8137 6.18054L27.7766 7.79832C27.6252 7.83965 27.4777 7.89382 27.3355 7.96023C27.0926 7.55804 26.75 7.2253 26.3408 6.99415C25.9317 6.76301 25.4699 6.64127 25 6.6407H18.75C18.1908 6.64049 17.6451 6.81285 17.1875 7.13425C16.7299 6.81285 16.1842 6.64049 15.625 6.6407H9.375C8.65005 6.64153 7.95503 6.92988 7.44242 7.44249C6.9298 7.95511 6.64145 8.65013 6.64062 9.37507V40.6251C6.64145 41.35 6.9298 42.045 7.44242 42.5577C7.95503 43.0703 8.65005 43.3586 9.375 43.3595H15.625C16.1842 43.3597 16.7299 43.1873 17.1875 42.8659C17.6451 43.1873 18.1908 43.3597 18.75 43.3595H25C25.7249 43.3586 26.42 43.0703 26.9326 42.5577C27.4452 42.045 27.7335 41.35 27.7344 40.6251V18.2055L33.9312 41.3325C34.024 41.6794 34.1843 42.0047 34.4028 42.2897C34.6213 42.5747 34.8939 42.8138 35.2049 42.9933C35.5159 43.1729 35.8593 43.2894 36.2154 43.3362C36.5714 43.383 36.9332 43.3592 37.2801 43.2661L43.3172 41.6483C44.0172 41.4599 44.6139 41.0015 44.9764 40.3737C45.3388 39.7459 45.4375 39 45.2508 38.2995ZM30.0281 17.7096L36.8197 15.8899L41.0658 31.737L34.2742 33.5567L30.0281 17.7096ZM28.1459 10.2442C28.1715 10.1997 28.2056 10.1608 28.2464 10.1296C28.2871 10.0984 28.3336 10.0755 28.3832 10.0624L34.4203 8.4446C34.4532 8.43573 34.4872 8.43127 34.5213 8.43132C34.6072 8.4314 34.6907 8.45977 34.7589 8.51205C34.8271 8.56433 34.8762 8.63762 34.8986 8.72058L36.2131 13.6259L29.4213 15.4456L28.1068 10.5407C28.0935 10.4911 28.0901 10.4394 28.0968 10.3886C28.1035 10.3377 28.1202 10.2886 28.1459 10.2442ZM18.75 8.98445H25C25.1036 8.9846 25.2028 9.02581 25.276 9.09903C25.3493 9.17225 25.3905 9.27152 25.3906 9.37507V33.2032H18.3594V9.37507C18.3595 9.27152 18.4007 9.17225 18.474 9.09903C18.5472 9.02581 18.6464 8.9846 18.75 8.98445ZM9.375 8.98445H15.625C15.7286 8.9846 15.8278 9.02581 15.901 9.09903C15.9743 9.17225 16.0155 9.27152 16.0156 9.37507V14.4532H8.98438V9.37507C8.98453 9.27152 9.02573 9.17225 9.09896 9.09903C9.17218 9.02581 9.27145 8.9846 9.375 8.98445ZM15.625 41.0157H9.375C9.27145 41.0155 9.17218 40.9743 9.09896 40.9011C9.02573 40.8279 8.98453 40.7286 8.98438 40.6251V16.7969H16.0156V40.6251C16.0155 40.7286 15.9743 40.8279 15.901 40.9011C15.8278 40.9743 15.7286 41.0155 15.625 41.0157ZM25 41.0157H18.75C18.6464 41.0155 18.5472 40.9743 18.474 40.9011C18.4007 40.8279 18.3595 40.7286 18.3594 40.6251V35.5469H25.3906V40.6251C25.3905 40.7286 25.3493 40.8279 25.276 40.9011C25.2028 40.9743 25.1036 41.0155 25 41.0157ZM42.7105 39.3843L36.6734 41.002C36.6239 41.0153 36.5722 41.0187 36.5213 41.012C36.4705 41.0053 36.4214 40.9887 36.377 40.9631C36.3325 40.9374 36.2936 40.9033 36.2624 40.8626C36.2311 40.8219 36.2082 40.7754 36.1949 40.7259L34.8809 35.8208L41.6725 34.0009L42.9867 38.9059C43.0135 39.006 42.9995 39.1126 42.9477 39.2024C42.8959 39.2921 42.8106 39.3576 42.7105 39.3844V39.3843Z" />
</svg>
