<svg width="20" height="21" viewBox="0 0 20 21" xmlns="http://www.w3.org/2000/svg">
<path d="M15 8.875H13.75C13.7495 8.37787 13.5518 7.90125 13.2003 7.54972C12.8488 7.1982 12.3721 7.0005 11.875 7V5.75C12.7035 5.75099 13.4978 6.08055 14.0836 6.66639C14.6694 7.25222 14.999 8.0465 15 8.875Z" />
<path d="M17.5 8.875H16.25C16.2487 7.71508 15.7873 6.60305 14.9671 5.78287C14.1469 4.96268 13.0349 4.50132 11.875 4.5V3.25C13.3663 3.25165 14.7961 3.84482 15.8506 4.89935C16.9052 5.95389 17.4983 7.38367 17.5 8.875Z" />
<path d="M16.25 18.875H16.1438C3.86252 18.1687 2.11877 7.80625 1.87502 4.64375C1.83693 4.14797 1.99732 3.65736 2.32094 3.27983C2.64455 2.9023 3.10487 2.66878 3.60065 2.63063C3.65023 2.62688 3.70002 2.625 3.75002 2.625H7.04377C7.29412 2.62476 7.53877 2.69969 7.74604 2.8401C7.95331 2.98051 8.11364 3.17992 8.20627 3.4125L9.15627 5.75C9.24774 5.97722 9.27044 6.2263 9.22155 6.46631C9.17266 6.70631 9.05433 6.92667 8.88127 7.1L7.55002 8.44375C7.75712 9.62583 8.32276 10.7156 9.17023 11.5653C10.0177 12.415 11.106 12.9835 12.2875 13.1938L13.6438 11.85C13.8197 11.6788 14.0421 11.5633 14.2833 11.5177C14.5245 11.4721 14.7738 11.4986 15 11.5938L17.3563 12.5375C17.5853 12.6331 17.7808 12.7946 17.9177 13.0017C18.0546 13.2087 18.1268 13.4518 18.125 13.7V17C18.125 17.4973 17.9275 17.9742 17.5758 18.3258C17.2242 18.6775 16.7473 18.875 16.25 18.875ZM3.75002 3.875C3.66795 3.87475 3.58662 3.89068 3.5107 3.92186C3.43478 3.95304 3.36574 3.99887 3.30753 4.05673C3.24932 4.11459 3.20308 4.18336 3.17144 4.25909C3.1398 4.33483 3.12339 4.41605 3.12315 4.49813C3.12315 4.51563 3.12377 4.53292 3.12502 4.55C3.41252 8.25 5.25627 17 16.2125 17.625C16.3779 17.6349 16.5405 17.5787 16.6645 17.4688C16.7885 17.3588 16.8638 17.2042 16.8738 17.0387L16.875 17V13.7L14.5188 12.7562L12.725 14.5375L12.425 14.5C6.98752 13.8188 6.25002 8.38125 6.25002 8.325L6.21252 8.025L7.98752 6.23125L7.05002 3.875H3.75002Z" /> 
</svg>
