<svg width="28" height="26" viewBox="0 0 28 26" fill="none" xmlns="http://www.w3.org/2000/svg">
<path d="M10.0143 4.97903C9.89068 4.90952 9.75099 4.8736 9.60914 4.87483C9.4673 4.87607 9.32825 4.91442 9.20582 4.98606C9.0834 5.05771 8.98186 5.16016 8.91132 5.28323C8.84077 5.40629 8.80367 5.54568 8.80371 5.68753V20.3125C8.80367 20.4544 8.84077 20.5938 8.91132 20.7168C8.98186 20.8399 9.0834 20.9423 9.20582 21.014C9.32825 21.0856 9.4673 21.124 9.60914 21.1252C9.75099 21.1265 9.89068 21.0905 10.0143 21.021L23.0143 13.7085C23.1398 13.6378 23.2441 13.535 23.3168 13.4106C23.3894 13.2863 23.4277 13.1448 23.4277 13.0008C23.4277 12.8568 23.3894 12.7154 23.3168 12.5911C23.2441 12.4667 23.1398 12.3639 23.0143 12.2932L10.0143 4.98065V4.97903ZM7.17871 5.68753C7.17888 5.26212 7.29038 4.84415 7.50213 4.47519C7.71388 4.10622 8.01851 3.7991 8.38574 3.58435C8.75297 3.3696 9.17001 3.2547 9.59541 3.25107C10.0208 3.24743 10.4397 3.3552 10.8106 3.56365L23.8106 10.8762C24.1877 11.0882 24.5015 11.3967 24.7199 11.7701C24.9384 12.1435 25.0535 12.5683 25.0535 13.0008C25.0535 13.4334 24.9384 13.8582 24.7199 14.2316C24.5015 14.605 24.1877 14.9135 23.8106 15.1255L10.8106 22.438C10.4396 22.6465 10.0205 22.7543 9.595 22.7506C9.16947 22.7469 8.75232 22.6319 8.38504 22.4169C8.01777 22.202 7.71316 21.8946 7.50152 21.5254C7.28989 21.1562 7.17859 20.7381 7.17871 20.3125V5.68753Z" fill="#34495E"/>
</svg>
