<svg width="20" height="20" viewBox="0 0 20 20" xmlns="http://www.w3.org/2000/svg">
<path d="M14.1666 10V9.92501C14.1628 9.84502 14.1459 9.7662 14.1166 9.69167C14.0944 9.63452 14.0634 9.58112 14.025 9.53334C14.0029 9.49531 13.9778 9.45908 13.95 9.42501L11.5666 6.92501C11.4911 6.84567 11.4007 6.78198 11.3006 6.73757C11.2005 6.69317 11.0926 6.66892 10.9831 6.66621C10.762 6.66074 10.5477 6.74334 10.3875 6.89584C10.2272 7.04834 10.1342 7.25825 10.1287 7.47938C10.1232 7.70052 10.2058 7.91477 10.3583 8.07501L11.3833 9.16667H6.66665C6.44563 9.16667 6.23367 9.25447 6.07739 9.41075C5.92111 9.56703 5.83331 9.77899 5.83331 10C5.83331 10.221 5.92111 10.433 6.07739 10.5893C6.23367 10.7455 6.44563 10.8333 6.66665 10.8333H11.325L10.2416 11.9083C10.1635 11.9858 10.1015 12.078 10.0592 12.1795C10.0169 12.2811 9.99515 12.39 9.99515 12.5C9.99515 12.61 10.0169 12.7189 10.0592 12.8205C10.1015 12.922 10.1635 13.0142 10.2416 13.0917C10.3191 13.1698 10.4113 13.2318 10.5128 13.2741C10.6144 13.3164 10.7233 13.3382 10.8333 13.3382C10.9433 13.3382 11.0522 13.3164 11.1538 13.2741C11.2553 13.2318 11.3475 13.1698 11.425 13.0917L13.925 10.5917C13.9999 10.5149 14.0594 10.4243 14.1 10.325C14.1438 10.2222 14.1664 10.1117 14.1666 10Z" />
</svg>
