<svg width="18" height="19" viewBox="0 0 18 19" xmlns="http://www.w3.org/2000/svg">
<path d="M9.00002 7.40683C7.70979 7.40683 6.65686 8.45976 6.65686 9.74999C6.65686 11.0402 7.70979 12.0932 9.00002 12.0932C10.2903 12.0932 11.3432 11.0402 11.3432 9.74999C11.3432 8.45976 10.2903 7.40683 9.00002 7.40683ZM16.0278 9.74999C16.0278 8.77968 16.0365 7.81815 15.9821 6.8496C15.9276 5.7246 15.6709 4.72616 14.8483 3.90351C14.0239 3.07909 13.0272 2.82421 11.9022 2.76972C10.9319 2.71523 9.97033 2.72401 9.00178 2.72401C8.03147 2.72401 7.06994 2.71523 6.10139 2.76972C4.97639 2.82421 3.97795 3.08085 3.1553 3.90351C2.33088 4.72792 2.076 5.7246 2.02151 6.8496C1.96701 7.81991 1.9758 8.78144 1.9758 9.74999C1.9758 10.7185 1.96701 11.6818 2.02151 12.6504C2.076 13.7754 2.33264 14.7738 3.1553 15.5965C3.97971 16.4209 4.97639 16.6758 6.10139 16.7303C7.0717 16.7848 8.03323 16.776 9.00178 16.776C9.97209 16.776 10.9336 16.7848 11.9022 16.7303C13.0272 16.6758 14.0256 16.4191 14.8483 15.5965C15.6727 14.7721 15.9276 13.7754 15.9821 12.6504C16.0383 11.6818 16.0278 10.7203 16.0278 9.74999ZM9.00002 13.3553C7.0049 13.3553 5.39475 11.7451 5.39475 9.74999C5.39475 7.75487 7.0049 6.14472 9.00002 6.14472C10.9951 6.14472 12.6053 7.75487 12.6053 9.74999C12.6053 11.7451 10.9951 13.3553 9.00002 13.3553ZM12.753 6.83905C12.2871 6.83905 11.911 6.46288 11.911 5.99706C11.911 5.53124 12.2871 5.15507 12.753 5.15507C13.2188 5.15507 13.5949 5.53124 13.5949 5.99706C13.5951 6.10767 13.5734 6.21722 13.5311 6.31944C13.4889 6.42166 13.4269 6.51453 13.3486 6.59275C13.2704 6.67096 13.1776 6.73298 13.0753 6.77524C12.9731 6.81751 12.8636 6.83919 12.753 6.83905Z" />
</svg>
