<svg width="18" height="19" viewBox="0 0 18 19" xmlns="http://www.w3.org/2000/svg">
<g clip-path="url(#clip0_377_8848)">
<path fill-rule="evenodd" clip-rule="evenodd" d="M15.8563 6.26754C15.96 5.92629 15.8563 5.67504 15.3594 5.67504H13.7188C13.3013 5.67504 13.1088 5.89191 13.0044 6.13129C13.0044 6.13129 12.17 8.12879 10.9881 9.42629C10.6056 9.80254 10.4319 9.92191 10.2231 9.92191C10.1188 9.92191 9.96189 9.80254 9.96189 9.46066V6.26754C9.96189 5.85754 9.84689 5.67504 9.49939 5.67504H6.91939C6.65876 5.67504 6.50189 5.86504 6.50189 6.04566C6.50189 6.43379 7.09314 6.52379 7.15376 7.61629V9.99004C7.15376 10.5107 7.05814 10.605 6.84939 10.605C6.29314 10.605 4.94001 8.59816 4.13689 6.30191C3.98126 5.85504 3.82376 5.67504 3.40439 5.67504H1.76251C1.29376 5.67504 1.20001 5.89191 1.20001 6.13129C1.20001 6.55754 1.75626 8.67504 3.79064 11.4757C5.14689 13.3882 7.05626 14.425 8.79564 14.425C9.83876 14.425 9.96751 14.195 9.96751 13.7982V12.3525C9.96751 11.8919 10.0663 11.8 10.3969 11.8C10.6406 11.8 11.0575 11.92 12.0313 12.8419C13.1438 13.935 13.3269 14.425 13.9531 14.425H15.5938C16.0625 14.425 16.2975 14.195 16.1625 13.74C16.0138 13.2875 15.4825 12.6307 14.7781 11.8513C14.3956 11.4075 13.8219 10.9294 13.6475 10.69C13.4044 10.3832 13.4738 10.2463 13.6475 9.97316C13.6475 9.97316 15.6475 7.20691 15.8556 6.26754H15.8563Z" />
</g>
<defs>
<clipPath id="clip0_377_8848">
<rect width="15" height="15" fill="white" transform="translate(1.20001 2.55005)"/>
</clipPath>
</defs>
</svg>
