<svg width="18" height="19" viewBox="0 0 18 19" xmlns="http://www.w3.org/2000/svg">
<g clip-path="url(#clip0_377_8857)">
<path d="M12.8837 12.2728C11.9592 12.8356 10.6871 13.0587 9.84694 13.1428L10.5522 13.8091L13.1267 16.2769C14.0681 17.202 12.5362 18.6477 11.5847 17.755C10.9402 17.1276 9.99541 16.222 9.01013 15.2775L6.4356 17.7518C5.48407 18.6413 3.95217 17.1826 4.9037 16.2737C5.5583 15.6462 6.49296 14.7406 7.47823 13.8059L8.17333 13.1396C7.34327 13.0555 6.05094 12.8453 5.11627 12.2695C4.01628 11.5903 3.53376 11.1925 3.95891 10.3613C4.20861 9.88905 4.89358 9.49122 5.80124 10.1769C5.80124 10.1769 7.02609 11.1116 9.00339 11.1116C10.9807 11.1116 12.2055 10.1769 12.2055 10.1769C13.1132 9.49446 13.7948 9.88905 14.0479 10.3613C14.4663 11.1925 13.9837 11.5903 12.8837 12.2728ZM4.62364 5.66495C4.62364 3.34591 6.59081 1.46997 9.00001 1.46997C11.4092 1.46997 13.3764 3.34591 13.3764 5.66495C13.3764 7.9743 11.4092 9.85024 9.00001 9.85024C6.59081 9.85024 4.62364 7.9743 4.62364 5.66495ZM6.85063 5.66495C6.85063 6.80022 7.81566 7.72525 9.00001 7.72525C10.1844 7.72525 11.1494 6.80022 11.1494 5.66495C11.1494 4.51999 10.1844 3.59495 9.00001 3.59495C7.81566 3.59495 6.85063 4.51999 6.85063 5.66495Z" />
</g>
<defs>
<clipPath id="clip0_377_8857">
<rect width="10.8" height="16.56" fill="white" transform="translate(3.59998 1.46997)"/>
</clipPath>
</defs>
</svg>
