<svg width="30" height="30" viewBox="0 0 30 30" fill="none" xmlns="http://www.w3.org/2000/svg">
<g clip-path="url(#clip0_1177_65299)">
<path d="M28.7207 1.125H8.25566C7.54961 1.125 6.97656 1.69453 6.97656 2.39648V8.0625L18.8371 11.5313L29.9998 8.0625V2.39648C29.9998 1.69395 29.4273 1.125 28.7207 1.125Z" fill="#41A5EE"/>
<path d="M29.9998 8.0625H6.97656V15L18.8371 17.0812L29.9998 15V8.0625Z" fill="#2B7CD3"/>
<path d="M6.97656 15V21.9375L18.1393 23.325L29.9998 21.9375V15H6.97656Z" fill="#185ABD"/>
<path d="M8.25566 28.875H28.7213C29.4273 28.875 30.0004 28.3055 30.0004 27.6035V21.9375H6.97656V27.6035C6.97656 28.3061 7.54902 28.875 8.25566 28.875Z" fill="#103F91"/>
<path opacity="0.1" d="M15.465 6.67505H6.97656V24.0188H15.465C16.1705 24.0165 16.7418 23.4487 16.7441 22.7473V7.94653C16.7418 7.24517 16.1705 6.67739 15.465 6.67505Z" fill="black"/>
<path opacity="0.2" d="M14.7678 7.36865H6.97656V24.7124H14.7678C15.4732 24.7101 16.0445 24.1423 16.0469 23.4409V8.64014C16.0439 7.93877 15.4727 7.371 14.7678 7.36865Z" fill="black"/>
<path opacity="0.2" d="M14.7678 7.36865H6.97656V23.3249H14.7678C15.4732 23.3226 16.0445 22.7548 16.0469 22.0534V8.64014C16.0439 7.93877 15.4727 7.371 14.7678 7.36865Z" fill="black"/>
<path opacity="0.2" d="M14.0699 7.36865H6.97656V23.3249H14.0699C14.7754 23.3226 15.3467 22.7548 15.349 22.0534V8.64014C15.3461 7.93877 14.7754 7.371 14.0699 7.36865Z" fill="black"/>
<path d="M1.2791 7.36865H14.0701C14.7762 7.36865 15.3492 7.93818 15.3492 8.64014V21.3597C15.3492 22.0622 14.7768 22.6311 14.0701 22.6311H1.2791C0.572461 22.6311 0 22.0616 0 21.3597V8.64014C0 7.93818 0.572461 7.36865 1.2791 7.36865Z" fill="url(#paint0_linear_1177_65299)"/>
<path d="M5.24775 17.1217C5.27295 17.318 5.28936 17.4885 5.29756 17.635H5.32686C5.33799 17.4961 5.36143 17.3291 5.39658 17.1334C5.43174 16.9377 5.46396 16.7725 5.49209 16.6371L6.8374 10.8662H8.57646L9.97158 16.5504C10.0524 16.9037 10.1104 17.2623 10.145 17.6227H10.1679C10.1937 17.2729 10.2423 16.9254 10.3132 16.582L11.4259 10.8633H13.0091L11.0544 19.1326H9.20518L7.87978 13.6559C7.8417 13.4982 7.79775 13.2926 7.74912 13.0389C7.70049 12.7852 7.67119 12.6006 7.65889 12.484H7.63603C7.6208 12.6188 7.59092 12.8186 7.5458 13.0834C7.50127 13.3482 7.46553 13.5445 7.43857 13.6717L6.19228 19.1309H4.31143L2.34619 10.8668H3.95752L5.16924 16.6494C5.19736 16.7678 5.22314 16.926 5.24775 17.1217Z" fill="white"/>
</g>
<defs>
<linearGradient id="paint0_linear_1177_65299" x1="2.68467" y1="6.35782" x2="12.6642" y2="23.642" gradientUnits="userSpaceOnUse">
<stop stop-color="#2368C4"/>
<stop offset="0.5" stop-color="#1A5DBE"/>
<stop offset="1" stop-color="#1146AC"/>
</linearGradient>
<clipPath id="clip0_1177_65299">
<rect width="30" height="30" fill="white"/>
</clipPath>
</defs>
</svg>
